# xmcd CD database file
#
# Track frame offsets:
#	150
#	12439
#	27286
#	40966
#	55043
#	70265
#	84067
#	97796
#	112006
#	130058
#	143567
#	156417
#	171729
#	193339
#	214243
#	235733
#
# Disc length: 3415 seconds
#
# Revision: 0
# Processed by: cddbd v1.5.2PL0 Copyright (c) Steve Scherf et al.
# Submitted via: CDex 1.51
#
DISCID=db0d5510
DTITLE=Coleman Hawkins - Sax Battle
DYEAR=2005
DGENRE=Jazz
TTITLE0=Cattin' at the keynote
TTITLE1=Flame Thrower
TTITLE2=Disorder at the border
TTITLE3=Pick-Up Boys
TTITLE4=Night and Day
TTITLE5=Feeling zero
TTITLE6=Rainbow Mist
TTITLE7=Porgy
TTITLE8=Hallelujah
TTITLE9=Salt Peanuts
TTITLE10=Imagination
TTITLE11=Uptown Lullaby
TTITLE12=Three little words
TTITLE13=Battle of the saxes
TTITLE14=Make Believe
TTITLE15=Just one of those things
EXTD=YEAR: 2005
EXTT0=
EXTT1=
EXTT2=
EXTT3=
EXTT4=
EXTT5=
EXTT6=
EXTT7=
EXTT8=
EXTT9=
EXTT10=
EXTT11=
EXTT12=
EXTT13=
EXTT14=
EXTT15=
PLAYORDER=
